<svg xmlns="http://www.w3.org/2000/svg" xmlns:xlink="http://www.w3.org/1999/xlink" preserveAspectRatio="xMidYMid" width="62" height="59" viewBox="0 0 62 59">
  <defs>
    <style>

      .cls-2 {
        fill: #00a2ff;
      }
    </style>
  </defs>
  <path d="M61.305,28.562 C61.305,29.219 61.210,29.828 61.023,30.390 C60.834,30.953 60.553,31.469 60.180,31.937 C59.804,32.408 59.382,32.781 58.914,33.062 C58.444,33.344 57.930,33.579 57.367,33.765 C57.648,34.236 57.881,34.728 58.070,35.242 C58.257,35.759 58.352,36.345 58.352,37.000 C58.352,37.562 58.257,38.125 58.070,38.687 C57.881,39.250 57.648,39.766 57.367,40.234 C56.991,40.610 56.569,40.961 56.101,41.289 C55.631,41.619 55.163,41.876 54.695,42.062 C54.976,42.533 55.209,43.047 55.398,43.609 C55.585,44.172 55.680,44.734 55.680,45.297 C55.680,45.954 55.585,46.540 55.398,47.055 C55.209,47.571 54.976,48.063 54.695,48.531 C54.320,49.001 53.898,49.399 53.430,49.726 C52.959,50.056 52.445,50.267 51.883,50.359 C52.256,50.829 52.538,51.322 52.727,51.836 C52.913,52.352 53.008,52.939 53.008,53.594 C53.008,54.251 52.867,54.908 52.586,55.562 C52.305,56.219 51.929,56.782 51.461,57.250 C50.898,57.720 50.288,58.094 49.633,58.375 C48.976,58.656 48.273,58.797 47.523,58.797 C47.523,58.797 28.961,58.797 28.961,58.797 C28.304,58.797 27.555,58.705 26.711,58.515 C25.867,58.329 24.975,58.048 24.039,57.672 C23.101,57.390 22.163,57.039 21.227,56.617 C20.288,56.195 19.350,55.797 18.414,55.422 C17.289,54.954 16.186,54.486 15.109,54.015 C14.031,53.547 13.257,53.312 12.789,53.312 C12.789,53.312 -0.008,53.312 -0.008,53.312 C-0.008,53.312 -0.008,25.891 -0.008,25.891 C-0.008,25.891 1.117,25.750 1.117,25.750 C6.461,25.750 10.117,25.750 12.086,25.750 C12.930,25.750 13.703,25.658 14.406,25.468 C15.109,25.282 15.834,24.906 16.586,24.344 C17.430,23.876 18.390,23.219 19.469,22.375 C20.545,21.531 21.835,20.501 23.336,19.281 C26.241,16.844 27.952,13.797 28.469,10.140 C28.983,6.484 29.242,4.375 29.242,3.812 C29.242,3.250 29.383,2.712 29.664,2.195 C29.945,1.681 30.319,1.281 30.789,1.000 C31.257,0.626 31.749,0.367 32.266,0.226 C32.780,0.086 33.272,0.015 33.742,0.015 C34.491,0.015 35.241,0.110 35.992,0.297 C36.741,0.486 37.444,0.908 38.102,1.562 C38.756,2.219 39.273,3.087 39.648,4.164 C40.022,5.243 40.211,6.673 40.211,8.453 C40.211,10.048 40.092,11.571 39.859,13.023 C39.624,14.478 39.319,15.860 38.945,17.172 C38.664,18.486 38.312,19.681 37.891,20.758 C37.469,21.837 37.117,22.751 36.836,23.500 C36.836,23.500 55.961,23.500 55.961,23.500 C56.805,23.500 57.530,23.619 58.141,23.851 C58.749,24.086 59.336,24.438 59.898,24.906 C60.366,25.376 60.718,25.915 60.953,26.523 C61.186,27.134 61.305,27.813 61.305,28.562 C61.305,28.562 61.305,28.562 61.305,28.562 C61.305,28.562 61.305,28.562 61.305,28.562 ZM55.961,31.516 C56.429,31.516 56.851,31.445 57.227,31.305 C57.600,31.164 57.881,30.953 58.070,30.672 C58.352,30.390 58.584,30.087 58.773,29.758 C58.960,29.430 59.055,29.032 59.055,28.562 C59.055,27.813 58.773,27.156 58.211,26.594 C57.648,26.031 56.897,25.750 55.961,25.750 C55.961,25.750 47.523,25.750 47.523,25.750 C47.523,25.844 47.523,25.844 47.523,25.750 C47.523,25.750 33.039,25.750 33.039,25.750 C33.039,25.750 33.883,24.062 33.883,24.062 C36.506,17.594 37.820,12.390 37.820,8.453 C37.820,5.359 37.304,3.555 36.273,3.039 C35.241,2.525 34.397,2.266 33.742,2.266 C33.461,2.266 33.039,2.406 32.476,2.687 C31.914,2.969 31.633,3.344 31.633,3.812 C31.633,4.375 31.584,5.313 31.492,6.625 C31.398,7.939 31.116,9.437 30.648,11.125 C30.178,12.812 29.499,14.548 28.609,16.328 C27.717,18.110 26.476,19.657 24.883,20.969 C23.288,22.283 21.952,23.383 20.875,24.273 C19.796,25.165 18.788,25.891 17.851,26.453 C16.913,27.016 15.975,27.437 15.039,27.719 C14.101,28.000 13.116,28.140 12.086,28.140 C11.334,28.140 10.515,28.140 9.625,28.140 C8.733,28.140 7.819,28.140 6.883,28.140 C6.039,28.140 5.217,28.140 4.422,28.140 C3.624,28.140 2.945,28.140 2.383,28.140 C2.383,28.140 2.383,50.922 2.383,50.922 C2.383,50.922 12.789,50.922 12.789,50.922 C13.444,50.922 14.312,51.133 15.391,51.554 C16.467,51.977 17.803,52.517 19.398,53.172 C20.148,53.547 20.967,53.945 21.859,54.367 C22.749,54.789 23.617,55.141 24.461,55.422 C25.397,55.703 26.241,55.962 26.992,56.195 C27.741,56.430 28.398,56.547 28.961,56.547 C28.961,56.547 44.570,56.547 44.570,56.547 C44.570,56.547 47.523,56.547 47.523,56.547 C47.991,56.547 48.413,56.454 48.789,56.266 C49.163,56.079 49.492,55.844 49.773,55.562 C50.055,55.376 50.266,55.094 50.406,54.719 C50.547,54.345 50.617,53.969 50.617,53.594 C50.617,53.126 50.547,52.728 50.406,52.398 C50.266,52.071 50.055,51.765 49.773,51.484 C49.492,51.203 49.163,50.992 48.789,50.852 C48.413,50.711 47.991,50.641 47.523,50.641 C47.523,50.641 47.242,50.641 47.242,50.641 C47.242,50.641 47.242,48.250 47.242,48.250 C47.242,48.250 50.476,48.250 50.476,48.250 C50.850,48.250 51.226,48.180 51.601,48.039 C51.975,47.898 52.305,47.687 52.586,47.406 C52.773,47.125 52.959,46.798 53.148,46.422 C53.335,46.048 53.430,45.673 53.430,45.297 C53.430,44.923 53.335,44.547 53.148,44.172 C52.959,43.798 52.773,43.469 52.586,43.187 C52.305,43.001 51.975,42.814 51.601,42.625 C51.226,42.438 50.850,42.344 50.476,42.344 C50.476,42.344 49.492,42.344 49.492,42.344 C49.492,42.344 49.492,39.953 49.492,39.953 C49.492,39.953 53.008,39.953 53.008,39.953 C53.381,39.953 53.757,39.883 54.133,39.742 C54.506,39.602 54.836,39.391 55.117,39.109 C55.398,38.828 55.631,38.501 55.820,38.125 C56.007,37.751 56.101,37.376 56.101,37.000 C56.101,36.532 56.007,36.110 55.820,35.734 C55.631,35.361 55.398,35.080 55.117,34.890 C54.836,34.609 54.506,34.376 54.133,34.187 C53.757,34.001 53.381,33.906 53.008,33.906 C53.008,33.906 51.883,33.906 51.883,33.906 C51.883,33.906 51.883,31.516 51.883,31.516 C51.883,31.516 55.961,31.516 55.961,31.516 C55.961,31.516 55.961,31.516 55.961,31.516 C55.961,31.516 55.961,31.516 55.961,31.516 C55.961,31.516 55.961,31.516 55.961,31.516 C55.961,31.516 55.961,31.516 55.961,31.516 Z" id="path-1" class="cls-2" fill-rule="evenodd"/>
</svg>
