<svg xmlns="http://www.w3.org/2000/svg" xmlns:xlink="http://www.w3.org/1999/xlink" preserveAspectRatio="xMidYMid" width="60" height="60" viewBox="0 0 60 60">
  <defs>
    <style>

      .cls-2 {
        fill: #ff6363;
      }
    </style>
  </defs>
  <path d="M29.969,0.016 C34.093,0.016 37.984,0.789 41.641,2.336 C45.297,3.883 48.483,6.016 51.203,8.734 C53.921,11.454 56.055,14.640 57.602,18.297 C59.148,21.953 59.922,25.844 59.922,29.969 C59.922,34.095 59.148,37.984 57.602,41.641 C56.055,45.297 53.921,48.485 51.203,51.203 C48.483,53.923 45.297,56.055 41.641,57.601 C37.984,59.148 34.093,59.922 29.969,59.922 C25.842,59.922 21.953,59.148 18.297,57.601 C14.641,56.055 11.452,53.923 8.734,51.203 C6.014,48.485 3.883,45.297 2.336,41.641 C0.789,37.984 0.016,34.095 0.016,29.969 C0.016,25.844 0.789,21.953 2.336,18.297 C3.883,14.640 6.014,11.454 8.734,8.734 C11.452,6.016 14.641,3.883 18.297,2.336 C21.953,0.789 25.842,0.016 29.969,0.016 C29.969,0.016 29.969,0.016 29.969,0.016 ZM29.969,57.531 C33.812,57.531 37.398,56.806 40.727,55.352 C44.053,53.899 46.984,51.955 49.516,49.515 C51.952,46.984 53.897,44.055 55.351,40.726 C56.804,37.400 57.531,33.814 57.531,29.969 C57.531,26.126 56.804,22.540 55.351,19.211 C53.897,15.884 51.952,12.953 49.516,10.422 C46.984,7.985 44.053,6.041 40.727,4.586 C37.398,3.133 33.812,2.406 29.969,2.406 C26.124,2.406 22.538,3.133 19.211,4.586 C15.882,6.041 12.953,7.985 10.422,10.422 C7.983,12.953 6.038,15.884 4.586,19.211 C3.131,22.540 2.406,26.126 2.406,29.969 C2.406,33.814 3.131,37.400 4.586,40.726 C6.038,44.055 7.983,46.984 10.422,49.515 C12.953,51.955 15.882,53.899 19.211,55.352 C22.538,56.806 26.124,57.531 29.969,57.531 C29.969,57.531 29.969,57.531 29.969,57.531 ZM45.016,19.281 C45.297,18.908 45.695,18.719 46.211,18.719 C46.725,18.719 47.171,18.908 47.547,19.281 C47.828,19.657 47.969,20.103 47.969,20.617 C47.969,21.133 47.780,21.531 47.406,21.812 C47.406,21.812 26.875,41.781 26.875,41.781 C26.780,41.970 26.616,42.087 26.383,42.133 C26.148,42.181 25.937,42.203 25.750,42.203 C25.469,42.203 25.209,42.181 24.977,42.133 C24.741,42.087 24.577,41.970 24.484,41.781 C24.484,41.781 16.469,33.765 16.469,33.765 C16.093,33.392 15.906,32.946 15.906,32.430 C15.906,31.915 16.093,31.515 16.469,31.234 C16.750,30.861 17.148,30.672 17.664,30.672 C18.178,30.672 18.624,30.861 19.000,31.234 C19.000,31.234 25.750,37.984 25.750,37.984 C25.750,37.984 45.016,19.281 45.016,19.281 C45.016,19.281 45.016,19.281 45.016,19.281 Z" id="path-1" class="cls-2" fill-rule="evenodd"/>
</svg>
